<svg id="fd72f088-e432-49ce-b92f-816075ddb272" data-name="Capa 1" xmlns="http://www.w3.org/2000/svg" xmlns:xlink="http://www.w3.org/1999/xlink" viewBox="0 0 247.91326 247.91326"><defs><style>.a09ae63f-e05d-43c4-9453-1058079ec3d3,.f88dba10-efce-4761-8b97-6c4338c3b537{fill:#f66;}.b35968ff-4ba6-47a8-9628-f0c1ee67da16{fill:#fff;}.a09ae63f-e05d-43c4-9453-1058079ec3d3{stroke:#f66;stroke-width:10px;}.a09ae63f-e05d-43c4-9453-1058079ec3d3,.bc3d39a2-1ac1-45cc-955a-c6ae60ff795e,.fa5e043a-f022-4af3-bd65-bdc71a6bbc2f{stroke-miterlimit:10;}.a4277d9a-d938-4046-b6a1-5a32df371ff8{fill:url(#fc818ea8-e529-4590-96cb-8bf25b9636c6);}.bc3d39a2-1ac1-45cc-955a-c6ae60ff795e,.fa5e043a-f022-4af3-bd65-bdc71a6bbc2f{fill:none;stroke:#fff;}.bc3d39a2-1ac1-45cc-955a-c6ae60ff795e{stroke-width:7px;}.fa5e043a-f022-4af3-bd65-bdc71a6bbc2f{stroke-width:5px;}</style><radialGradient id="fc818ea8-e529-4590-96cb-8bf25b9636c6" cx="83.5174" cy="55.04964" r="0" gradientUnits="userSpaceOnUse"><stop offset="0" stop-color="#ffa48b"/><stop offset="0" stop-color="#ffa189"/><stop offset="1" stop-color="#f66"/></radialGradient></defs><rect class="f88dba10-efce-4761-8b97-6c4338c3b537" width="247.91326" height="247.91326" rx="56.69291"/><path class="b35968ff-4ba6-47a8-9628-f0c1ee67da16" d="M83.54346,55.05078h43.0747c52.93848,0,81.32227,30.76758,81.32227,85.46973,0,54.70117-28.38379,86.71191-80.35693,86.71191h-44.04Zm41.44629,154.2168c40.2456,0,60.32177-25.22363,60.32177-68.74707,0-43.52442-20.07617-67.50489-60.32177-67.50489H105.4541v136.252Z" transform="translate(-17.71653 -17.71653)"/><circle class="a09ae63f-e05d-43c4-9453-1058079ec3d3" cx="92.70861" cy="183.40719" r="40.18646"/><path class="a4277d9a-d938-4046-b6a1-5a32df371ff8" d="M83.5174,55.04964" transform="translate(-17.71653 -17.71653)"/><circle class="bc3d39a2-1ac1-45cc-955a-c6ae60ff795e" cx="92.70861" cy="183.40719" r="33.32094"/><path class="fa5e043a-f022-4af3-bd65-bdc71a6bbc2f" d="M94.39214,215.42177V191.91969c0-4.07263,4.5838-6.11223,7.26462-3.23243L108.808,201.784a2.19806,2.19806,0,0,0,3.92806-.00807l6.97352-12.884c2.68048-2.87942,7.26369-.84,7.26358,3.2321l-.00075,23.29921" transform="translate(-17.71653 -17.71653)"/><circle class="b35968ff-4ba6-47a8-9628-f0c1ee67da16" cx="76.69256" cy="197.7067" r="2.51615"/><circle class="b35968ff-4ba6-47a8-9628-f0c1ee67da16" cx="109.25658" cy="197.7067" r="2.51615"/></svg>