<?xml version="1.0" encoding="UTF-8" standalone="no"?>
<!DOCTYPE svg PUBLIC "-//W3C//DTD SVG 1.1//EN" "http://www.w3.org/Graphics/SVG/1.1/DTD/svg11.dtd">
<!-- Created with Vectornator (http://vectornator.io/) -->
<svg height="100%" stroke-miterlimit="10" style="fill-rule:nonzero;clip-rule:evenodd;stroke-linecap:round;stroke-linejoin:round;" version="1.1" viewBox="0 0 1024 1024" width="100%" xml:space="preserve" xmlns="http://www.w3.org/2000/svg" xmlns:vectornator="http://vectornator.io" xmlns:xlink="http://www.w3.org/1999/xlink">
<defs/>
<g id="Capa-1" vectornator:layerName="Capa 1">
<path d="M60 515.222C60 269.333 259.333 70 505.222 70C751.111 70 950.444 269.333 950.444 515.222C950.444 761.111 751.111 960.444 505.222 960.444C259.333 960.444 60 761.111 60 515.222Z" fill="none" opacity="1" stroke="#ff6667" stroke-linecap="butt" stroke-linejoin="round" stroke-width="50.6046"/>
<path d="M258.247 145.404C279.048 181.678 312.476 249.709 313.477 251.649C352.605 327.494 378.571 405.6 392.008 448.166C417.28 528.22 513.374 928.254 345.617 922.743C293.96 921.046 213.337 862.617 227.512 743.946C244.901 598.369 373.676 357.302 465.789 351.779C542.071 347.205 548.911 452.547 556.07 506.408C563.1 559.288 560.352 572.905 558.454 541.582C554.903 482.993 568.766 342.194 652.6 365.867C744.843 391.914 702.511 642.817 713.851 547.554C721.378 484.32 731.669 371.753 805.786 379.474C885.137 387.74 886.643 626.164 893.793 728.29" fill="none" opacity="1" stroke="#ff6667" stroke-linecap="round" stroke-linejoin="round" stroke-width="50.6046"/>
<path d="M60 515.222C60 269.333 259.333 70 505.222 70C751.111 70 950.444 269.333 950.444 515.222C950.444 761.111 751.111 960.444 505.222 960.444C259.333 960.444 60 761.111 60 515.222Z" fill="none" opacity="1" stroke="#ff6667" stroke-linecap="round" stroke-linejoin="round" stroke-width="50.6046"/>
</g>
</svg>
